<?xml version="1.0" encoding="UTF-8"?>
<!DOCTYPE svg PUBLIC "-//W3C//DTD SVG 1.1//EN" "http://www.w3.org/Graphics/SVG/1.1/DTD/svg11.dtd">
<svg xmlns="http://www.w3.org/2000/svg" version="1.1" width="225px" height="225px" style="shape-rendering:geometricPrecision; text-rendering:geometricPrecision; image-rendering:optimizeQuality; fill-rule:evenodd; clip-rule:evenodd" xmlns:xlink="http://www.w3.org/1999/xlink">
<g><path style="opacity:0.999" fill="#0f0f0f" d="M 154.5,-0.5 C 158.167,-0.5 161.833,-0.5 165.5,-0.5C 167.349,0.593015 169.016,1.92635 170.5,3.5C 170.833,4.5 171.5,5.16667 172.5,5.5C 177.639,11.8964 177.805,18.5631 173,25.5C 144.167,54.3333 115.333,83.1667 86.5,112C 115.333,140.833 144.167,169.667 173,198.5C 177.794,205.407 177.628,212.073 172.5,218.5C 171.5,218.833 170.833,219.5 170.5,220.5C 169.016,222.074 167.349,223.407 165.5,224.5C 162.167,224.5 158.833,224.5 155.5,224.5C 153.924,223.857 152.59,222.857 151.5,221.5C 151.027,220.094 150.027,219.427 148.5,219.5C 115.868,187.368 83.368,155.035 51,122.5C 46.6308,116.116 46.4642,109.783 50.5,103.5C 51.9063,103.027 52.573,102.027 52.5,100.5C 85.8888,66.1107 119.889,32.444 154.5,-0.5 Z"/></g>
<g><path style="opacity:0.027" fill="#c6c6c6" d="M 170.5,3.5 C 171.833,3.5 172.5,4.16667 172.5,5.5C 171.5,5.16667 170.833,4.5 170.5,3.5 Z"/></g>
<g><path style="opacity:0.643" fill="#a1a1a1" d="M 52.5,100.5 C 52.573,102.027 51.9063,103.027 50.5,103.5C 50.427,101.973 51.0937,100.973 52.5,100.5 Z"/></g>
<g><path style="opacity:0.012" fill="#c7c7c7" d="M 172.5,218.5 C 172.5,219.833 171.833,220.5 170.5,220.5C 170.833,219.5 171.5,218.833 172.5,218.5 Z"/></g>
<g><path style="opacity:0.686" fill="#8b8b8b" d="M 148.5,219.5 C 150.027,219.427 151.027,220.094 151.5,221.5C 149.973,221.573 148.973,220.906 148.5,219.5 Z"/></g>
</svg>
