<?xml version="1.0" encoding="UTF-8"?>
<!DOCTYPE svg PUBLIC "-//W3C//DTD SVG 1.1//EN" "http://www.w3.org/Graphics/SVG/1.1/DTD/svg11.dtd">
<svg xmlns="http://www.w3.org/2000/svg" version="1.1" width="225px" height="225px" style="shape-rendering:geometricPrecision; text-rendering:geometricPrecision; image-rendering:optimizeQuality; fill-rule:evenodd; clip-rule:evenodd" xmlns:xlink="http://www.w3.org/1999/xlink">
<g><path style="opacity:0.999" fill="#0d0d0d" d="M 58.5,-0.5 C 61.8333,-0.5 65.1667,-0.5 68.5,-0.5C 70.5681,0.374833 72.5681,1.5415 74.5,3C 107.333,35.8333 140.167,68.6667 173,101.5C 177.667,108.5 177.667,115.5 173,122.5C 138.91,157.091 104.41,191.091 69.5,224.5C 65.8333,224.5 62.1667,224.5 58.5,224.5C 47.005,218.494 44.505,209.827 51,198.5C 79.8333,169.667 108.667,140.833 137.5,112C 108.667,83.1667 79.8333,54.3333 51,25.5C 44.9049,14.2905 47.4049,5.62384 58.5,-0.5 Z"/></g>
</svg>
